<svg width="16" height="14" viewBox="0 0 16 14" fill="none" xmlns="http://www.w3.org/2000/svg">
<g clip-path="url(#clip0_4_86)">
<rect width="16" height="14" fill="white"/>
<rect width="16" height="14" fill="black"/>
<rect width="15" height="13" fill="white"/>
<rect x="1" y="1" width="14" height="12" fill="#808080"/>
<rect x="1" y="1" width="13" height="11" fill="#DBDBDB"/>
<rect x="2" y="2" width="12" height="10" fill="#BFBFBF"/>
</g>
<g filter="url(#filter0_iiii_4_86)">
<rect width="16" height="14" fill="#BFBFBF"/>
</g>
<path fill-rule="evenodd" clip-rule="evenodd" d="M4 3H6V4H7V5H9V4H10V3H12V4H11V5H10V6H9V7H10V8H11V9H12V10H10V9H9V8H7V9H6V10H4V9H5V8H6V7H7V6H6V5H5V4H4V3Z" fill="black"/>
<defs>
<filter id="filter0_iiii_4_86" x="0" y="0" width="16" height="14" filterUnits="userSpaceOnUse" color-interpolation-filters="sRGB">
<feFlood flood-opacity="0" result="BackgroundImageFix"/>
<feBlend mode="normal" in="SourceGraphic" in2="BackgroundImageFix" result="shape"/>
<feColorMatrix in="SourceAlpha" type="matrix" values="0 0 0 0 0 0 0 0 0 0 0 0 0 0 0 0 0 0 127 0" result="hardAlpha"/>
<feOffset dx="2" dy="2"/>
<feComposite in2="hardAlpha" operator="arithmetic" k2="-1" k3="1"/>
<feColorMatrix type="matrix" values="0 0 0 0 0.858824 0 0 0 0 0.858824 0 0 0 0 0.858824 0 0 0 1 0"/>
<feBlend mode="normal" in2="shape" result="effect1_innerShadow_4_86"/>
<feColorMatrix in="SourceAlpha" type="matrix" values="0 0 0 0 0 0 0 0 0 0 0 0 0 0 0 0 0 0 127 0" result="hardAlpha"/>
<feOffset dx="-2" dy="-2"/>
<feComposite in2="hardAlpha" operator="arithmetic" k2="-1" k3="1"/>
<feColorMatrix type="matrix" values="0 0 0 0 0.501961 0 0 0 0 0.501961 0 0 0 0 0.501961 0 0 0 1 0"/>
<feBlend mode="normal" in2="effect1_innerShadow_4_86" result="effect2_innerShadow_4_86"/>
<feColorMatrix in="SourceAlpha" type="matrix" values="0 0 0 0 0 0 0 0 0 0 0 0 0 0 0 0 0 0 127 0" result="hardAlpha"/>
<feOffset dx="1" dy="1"/>
<feComposite in2="hardAlpha" operator="arithmetic" k2="-1" k3="1"/>
<feColorMatrix type="matrix" values="0 0 0 0 1 0 0 0 0 1 0 0 0 0 1 0 0 0 1 0"/>
<feBlend mode="normal" in2="effect2_innerShadow_4_86" result="effect3_innerShadow_4_86"/>
<feColorMatrix in="SourceAlpha" type="matrix" values="0 0 0 0 0 0 0 0 0 0 0 0 0 0 0 0 0 0 127 0" result="hardAlpha"/>
<feOffset dx="-1" dy="-1"/>
<feComposite in2="hardAlpha" operator="arithmetic" k2="-1" k3="1"/>
<feColorMatrix type="matrix" values="0 0 0 0 0 0 0 0 0 0 0 0 0 0 0 0 0 0 1 0"/>
<feBlend mode="normal" in2="effect3_innerShadow_4_86" result="effect4_innerShadow_4_86"/>
</filter>
<clipPath id="clip0_4_86">
<rect width="16" height="14" fill="white"/>
</clipPath>
</defs>
</svg>
