<svg xmlns="http://www.w3.org/2000/svg" viewBox="0 -0.5 32 32" shape-rendering="crispEdges">

<path stroke="#000000" d="M24 1h1M22 2h3M20 3h3M25 3h1M18 4h9M16 5h3M24 5h2M14 6h10M12 7h3M20 7h2M10 8h10M9 9h2M15 9h3M7 10h9M4 11h3M12 11h2M3 12h1M7 12h5M3 13h1M7 13h3M3 14h1M7 14h4M13 14h3M18 14h3M23 14h3M4 15h5M11 15h3M16 15h3M21 15h3M26 15h1M28 15h1M4 16h3M9 16h3M14 16h3M19 16h3M24 16h3M28 16h1M4 17h1M7 17h3M12 17h3M17 17h3M22 17h3M28 17h1M4 18h4M10 18h3M15 18h3M20 18h3M25 18h2M28 18h1M4 19h1M28 19h1M4 20h1M28 20h1M4 21h1M28 21h1M4 22h1M28 22h1M4 23h1M28 23h1M4 24h1M28 24h1M4 25h1M28 25h1M4 26h1M28 26h1M4 27h1M28 27h1M4 28h1M28 28h1M4 29h1M28 29h1M5 30h24"/>
<path stroke="#ffffff" d="M23 3h2M19 5h5M15 7h5M11 9h4M7 11h5M5 12h1M4 13h1M6 13h1M5 14h1M9 15h2M14 15h2M19 15h2M24 15h2M7 16h2M12 16h2M17 16h2M22 16h2M5 17h2M10 17h2M15 17h2M20 17h2M25 17h2M8 18h2M13 18h2M18 18h2M23 18h2M5 19h22M5 20h22M5 21h5M12 21h4M18 21h4M23 21h4M5 22h4M10 22h2M13 22h2M16 22h2M19 22h2M23 22h4M5 23h6M12 23h5M18 23h4M23 23h4M5 24h7M13 24h3M17 24h5M23 24h4M5 25h4M10 25h2M13 25h2M16 25h6M23 25h4M5 26h5M12 26h3M19 26h3M23 26h4M5 27h22M5 28h22"/>
<path stroke="#ffff00" d="M4 12h1M6 12h1M5 13h1M4 14h1M6 14h1"/>
<path stroke="#808080" d="M11 14h2M16 14h2M21 14h2M26 14h2M27 15h1M27 16h1M27 17h1M27 18h1M27 19h1M27 20h1M27 21h1M27 22h1M27 23h1M27 24h1M27 25h1M27 26h1M27 27h1M27 28h1M5 29h23"/>
<path stroke="#ff0000" d="M10 21h2M9 22h1M12 22h1M11 23h1M12 24h1M9 25h1M12 25h1M10 26h2"/>
<path stroke="#0000ff" d="M16 21h2M15 22h1M18 22h1M17 23h1M16 24h1M15 25h1M15 26h4"/>
<path stroke="#00bf00" d="M22 21h1M21 22h2M22 23h1M22 24h1M22 25h1M22 26h1"/>
</svg>